<svg width="29" height="28" viewBox="0 0 29 28" fill="none" xmlns="http://www.w3.org/2000/svg">
<path d="M27.3457 0H1.58567C0.966168 0 0.465668 0.5005 0.465668 1.12V26.88C0.465668 27.4995 0.966168 28 1.58567 28H27.3457C27.9652 28 28.4657 27.4995 28.4657 26.88V1.12C28.4657 0.5005 27.9652 0 27.3457 0ZM24.1117 8.1725H21.8752C20.1217 8.1725 19.7822 9.0055 19.7822 10.2305V12.929H23.9682L23.4222 17.1535H19.7822V28H15.4177V17.157H11.7672V12.929H15.4177V9.814C15.4177 6.1985 17.6262 4.228 20.8532 4.228C22.4002 4.228 23.7267 4.3435 24.1152 4.396V8.1725H24.1117Z" fill="white"/>
</svg>
