<svg width="28" height="28" viewBox="0 0 28 28" fill="none" xmlns="http://www.w3.org/2000/svg">
<path d="M24.5 28H3.5C2.53385 28 1.70898 27.6582 1.02539 26.9746C0.341797 26.291 0 25.4661 0 24.5V3.5C0 2.53385 0.341797 1.70898 1.02539 1.02539C1.70898 0.341797 2.53385 0 3.5 0H24.5C25.4661 0 26.291 0.341797 26.9746 1.02539C27.6582 1.70898 28 2.53385 28 3.5V24.5C28 25.4661 27.6582 26.291 26.9746 26.9746C26.291 27.6582 25.4661 28 24.5 28ZM14 10.5C13.0339 10.5 12.209 10.8418 11.5254 11.5254C10.8418 12.209 10.5 13.0339 10.5 14C10.5 14.9661 10.8418 15.791 11.5254 16.4746C12.209 17.1582 13.0339 17.5 14 17.5C14.9661 17.5 15.791 17.1582 16.4746 16.4746C17.1582 15.791 17.5 14.9661 17.5 14C17.5 13.0339 17.1582 12.209 16.4746 11.5254C15.791 10.8418 14.9661 10.5 14 10.5ZM24.5 4.375C24.5 4.13802 24.4134 3.93294 24.2402 3.75977C24.0671 3.58659 23.862 3.5 23.625 3.5H20.125C19.888 3.5 19.6829 3.58659 19.5098 3.75977C19.3366 3.93294 19.25 4.13802 19.25 4.375V7.875C19.25 8.11198 19.3366 8.31706 19.5098 8.49023C19.6829 8.66341 19.888 8.75 20.125 8.75H23.625C23.862 8.75 24.0671 8.66341 24.2402 8.49023C24.4134 8.31706 24.5 8.11198 24.5 7.875V4.375ZM24.5 13.125C24.5 12.888 24.4134 12.6829 24.2402 12.5098C24.0671 12.3366 23.862 12.25 23.625 12.25H21.875C21.638 12.25 21.4329 12.3366 21.2598 12.5098C21.0866 12.6829 21 12.888 21 13.125V14C21 15.9323 20.3164 17.582 18.9492 18.9492C17.582 20.3164 15.9323 21 14 21C12.0677 21 10.418 20.3164 9.05078 18.9492C7.68359 17.582 7 15.9323 7 14V13.125C7 12.888 6.91341 12.6829 6.74023 12.5098C6.56706 12.3366 6.36198 12.25 6.125 12.25H4.375C4.13802 12.25 3.93294 12.3366 3.75977 12.5098C3.58659 12.6829 3.5 12.888 3.5 13.125V23.625C3.5 23.862 3.58659 24.0671 3.75977 24.2402C3.93294 24.4134 4.13802 24.5 4.375 24.5H23.625C23.862 24.5 24.0671 24.4134 24.2402 24.2402C24.4134 24.0671 24.5 23.862 24.5 23.625V13.125Z" fill="white"/>
</svg>
