<svg width="285" height="37" viewBox="0 0 285 37" fill="none" xmlns="http://www.w3.org/2000/svg">
<path d="M39.8597 7.19719H25.5469V36.5053H14.0508V7.19719H0V0.494652H39.8597V7.19719Z" fill="white"/>
<path d="M86.6119 36.5053H75.1813V21.4679H58.2483V36.5053H46.7522V0.494652H58.2483V14.7901H75.1813V0.494652H86.6119V36.5053Z" fill="white"/>
<path d="M125.503 21.2453H107.424V29.8275H128.779V36.5053H95.928V0.494652H128.844V7.19719H107.424V14.7901H125.503V21.2453Z" fill="white"/>
<path d="M167.095 29.8275H189.891V36.5053H152.75V31.9298L175.48 7.19719H152.619V0.494652H189.662V4.94652L167.095 29.8275Z" fill="white"/>
<path d="M236.676 19.242C236.676 22.754 235.813 25.8621 234.088 28.5662C232.363 31.2703 229.907 33.3561 226.719 34.8235C223.553 36.2745 219.939 37 215.878 37C211.817 37 208.214 36.2992 205.07 34.8977C201.925 33.4797 199.469 31.4599 197.7 28.8382C195.954 26.2166 195.036 23.2074 194.949 19.8108V17.7828C194.949 14.2542 195.801 11.1462 197.504 8.45856C199.229 5.75446 201.685 3.66867 204.873 2.2012C208.083 0.733734 211.729 0 215.812 0C219.852 0 223.455 0.72549 226.621 2.17647C229.787 3.62745 232.243 5.69675 233.99 8.38436C235.759 11.0555 236.654 14.1223 236.676 17.5849V19.242ZM224.983 17.7333C224.983 14.1553 224.186 11.443 222.592 9.59626C221.02 7.73307 218.76 6.80147 215.812 6.80147C210.048 6.80147 207.002 10.0662 206.675 16.5956L206.642 19.242C206.642 22.7705 207.417 25.4828 208.967 27.379C210.517 29.2752 212.821 30.2233 215.878 30.2233C218.782 30.2233 221.02 29.2917 222.592 27.4285C224.164 25.5653 224.961 22.8859 224.983 19.3904V17.7333Z" fill="white"/>
<path d="M285 19.242C285 22.754 284.138 25.8621 282.413 28.5662C280.688 31.2703 278.231 33.3561 275.043 34.8235C271.877 36.2745 268.264 37 264.202 37C260.141 37 256.538 36.2992 253.394 34.8977C250.25 33.4797 247.793 31.4599 246.025 28.8382C244.278 26.2166 243.361 23.2074 243.273 19.8108V17.7828C243.273 14.2542 244.125 11.1462 245.828 8.45856C247.553 5.75446 250.009 3.66867 253.197 2.2012C256.407 0.733734 260.054 0 264.137 0C268.176 0 271.779 0.72549 274.945 2.17647C278.111 3.62745 280.568 5.69675 282.314 8.38436C284.083 11.0555 284.978 14.1223 285 17.5849V19.242ZM273.307 17.7333C273.307 14.1553 272.51 11.443 270.916 9.59626C269.344 7.73307 267.084 6.80147 264.137 6.80147C258.372 6.80147 255.326 10.0662 254.999 16.5956L254.966 19.242C254.966 22.7705 255.741 25.4828 257.291 27.379C258.842 29.2752 261.145 30.2233 264.202 30.2233C267.106 30.2233 269.344 29.2917 270.916 27.4285C272.489 25.5653 273.286 22.8859 273.307 19.3904V17.7333Z" fill="white"/>
</svg>
