<svg width="445" height="445" viewBox="0 0 445 445" fill="none" xmlns="http://www.w3.org/2000/svg">
<path class="nigerian-state" d="M221.389 375.407L192.988 370.167L159.192 367.309L102.865 370.167L99.8498 369.69L98.2632 368.579L96.9938 366.991L95.0898 365.562L97.3112 364.768L98.7392 365.562L100.802 363.816L101.595 364.451L102.389 368.42L106.99 364.133L108.259 365.403L110.957 364.768L113.495 364.609L115.717 364.292L117.779 363.18L119.683 361.116L119.842 359.687L119.683 356.988L120.953 356.512H126.347L129.203 356.035L134.915 354.13L136.819 354.606L139.675 353.495L142.373 351.907L144.277 349.843L144.911 346.985L146.498 346.35L157.605 344.603L155.701 343.492L153.956 343.809L146.498 341.904L139.041 344.762L131.901 348.89L125.554 350.954L121.746 351.272L117.145 353.653L114.13 354.606H112.385L110.322 353.812H108.735L107.466 352.701L106.831 349.366L107.783 346.508V344.603L105.562 346.032L103.975 347.302L101.119 350.637L97.4698 351.272L96.9938 352.383L97.7872 355.241L97.3112 357.941L95.5658 360.799L94.6138 363.339L93.1858 364.927L95.7245 368.897L95.0898 371.913L87.3151 372.707L72.559 372.072L55.2642 373.977L34.7961 373.025L5.28395 375.724V367.626L6.23596 361.751L11.472 362.228L15.9147 361.751L19.4054 362.863L22.7374 362.704L26.2281 360.322L28.7668 357.464L28.6081 355.559L30.0361 354.765L58.9136 356.035L66.6883 355.083L68.5923 352.86L70.0203 346.35L71.9243 343.65L73.987 341.427L75.891 334.6L76.6844 332.694L80.8097 330.948L83.9831 331.9L90.0125 335.076L93.0271 339.046L97.7872 339.204L100.326 338.728L101.913 336.505L102.23 334.6L103.499 333.329L180.612 333.012L188.386 335.076L186.958 338.569L183.785 341.11L182.674 344.444L183.944 347.62L184.102 349.366L187.91 352.383L191.877 350.319L195.844 347.62L200.128 346.667L203.936 348.096L205.364 350.795L204.094 353.653L196.478 357.782L196.796 361.116L199.81 363.022L203.46 363.974L205.364 365.721L207.585 367.15L210.6 366.356L218.216 366.674L221.865 367.944L222.024 371.437L221.389 375.407Z" fill="white" stroke="black" stroke-width="2" stroke-linecap="round" stroke-linejoin="round"/>
<path class="nigerian-state" d="M186.482 276.803L195.844 272.199L198.541 277.915L199.652 283.79L205.047 283.155L209.965 279.979L216.153 279.82L220.437 283.472L222.024 286.806L223.293 290.141L223.611 292.364L224.404 294.269L228.053 294.428L232.813 291.888L235.511 292.681L238.367 292.84L240.588 291.888L242.968 291.252L248.363 290.776L250.425 293.316L247.411 310.782L244.872 314.117L232.972 322.85L226.467 329.836L223.135 338.569V342.698L225.039 346.032L226.784 347.302L231.068 348.731L233.289 349.049L240.112 349.366L245.824 345.714L247.887 342.698L251.219 341.11L253.599 344.603V353.971L254.868 360.163L254.551 362.069L252.964 363.657L250.901 364.292L244.237 369.214L239.953 369.849L237.732 370.643L240.112 373.342H244.079L251.378 376.518L251.536 380.17L249.473 382.552L241.54 381.916L241.381 382.075L229.799 376.994L221.389 375.406L222.024 371.437L221.865 367.944L218.216 366.673L210.6 366.356L207.585 367.15L205.364 365.721L203.46 363.974L199.811 363.022L196.796 361.116L196.479 357.782L204.095 353.653L205.364 350.795L203.936 348.096L200.128 346.667L195.844 347.62L191.877 350.319L187.91 352.383L184.102 349.366L183.944 347.62L182.674 344.444L183.785 341.11L186.958 338.569L188.386 335.076L180.612 333.012L103.499 333.329L102.23 334.6L101.913 336.505L100.326 338.728L97.7872 339.204L93.0272 339.046L90.0125 335.076L83.9832 331.9L80.8098 330.948L76.6845 332.694L75.8911 334.6L73.9871 341.427L71.9244 343.65L70.0204 346.35L68.5924 352.859L66.6884 355.082L58.9137 356.035L30.0362 354.765L28.6082 355.559L28.7668 357.464L26.2281 360.322L22.7375 362.704L19.4054 362.863L15.9148 361.751L11.4721 362.228L6.23603 361.751L6.71203 359.052L9.72672 350.478L9.88539 347.778L8.77471 342.062V339.363L10.3614 336.505L12.7414 334.441L14.3281 333.329L15.1214 331.742L14.6454 325.708L14.4867 324.279L13.6934 323.644L10.6787 323.167L8.45738 320.944L7.82271 318.404L8.14004 315.546L9.56805 309.989L8.93338 304.272L7.18804 299.191L6.71203 294.428L10.2027 289.665L14.8041 287.6L15.2801 286.171L14.4867 284.901L10.9961 282.043L9.88539 280.614L9.56805 278.074L11.3134 274.58L12.4241 273.151L12.9001 270.134L10.2027 237.267L10.5201 235.838L11.4721 235.203H12.9001L15.7561 235.838L16.5494 233.615L16.8668 228.057L14.0107 223.135L10.0441 218.531L7.50537 213.608L6.71203 208.368L8.29871 185.98L7.98138 184.075L6.71203 182.17L3.69735 178.518L2.11067 174.707L1 172.643L1.95201 172.166L13.2174 164.068L26.0695 164.386L29.4015 170.737L30.0362 185.504L32.4162 192.808L36.0655 193.443L37.3349 186.615L39.2389 180.741L44.3163 180.582L45.1096 192.332L40.1909 205.828L40.3496 208.686L42.8882 215.514L48.4416 220.118L52.7256 225.834L58.755 236.632L67.9577 245.047L75.2564 247.587L82.5552 247.27L87.9499 242.665L93.1859 229.486L98.7393 225.834L103.499 229.486L105.879 235.996L109.687 238.061L113.495 235.996L117.462 234.25L130.631 234.567L135.233 241.077L135.074 248.54L135.391 250.763L139.358 253.621L143.166 255.685L143.96 258.067V260.608L144.277 262.672L145.229 264.577L146.816 272.516L141.897 279.344L138.247 285.377L146.181 285.695L162.524 283.79L170.616 281.567L174.265 279.185L178.549 277.756L182.516 277.438L186.482 276.803Z" fill="white" stroke="black" stroke-width="2" stroke-linecap="round" stroke-linejoin="round"/>
<path class="nigerian-state" d="M444 215.355L441.62 219.324L438.605 222.976L437.019 223.77L433.369 224.564L431.624 226.152L430.355 230.757L434.321 233.297L434.956 235.679L433.528 238.537L434.004 242.665L434.797 244.571L435.273 247.587L434.004 251.875L432.259 253.78L430.037 255.209L426.864 258.067L424.008 261.401L423.849 263.148L424.167 264.418L418.137 278.391L417.344 281.567L415.598 283.948L412.108 287.6L410.362 292.364L410.045 297.127L411.949 301.097L412.425 302.685L410.68 305.066L410.838 307.13L407.824 307.924L406.554 311.259L404.968 319.674L404.333 321.58L402.429 324.755L401.001 325.708L398.78 326.502L394.654 325.549L392.909 323.961L389.101 323.644L382.596 328.884L379.74 329.36L376.249 320.627L377.518 316.816L379.74 313.482L373.71 308.718H336.741L334.519 309.671L332.933 311.418V314.911L330.87 317.769L329.125 321.262L324.365 325.867L320.398 330.948L318.811 333.806L318.335 338.093L317.859 339.998V344.126L318.494 345.238L319.605 345.714L321.826 349.366L324.206 356.353L321.191 363.339L318.97 366.673L318.018 370.643L316.114 373.977L312.782 375.724L309.926 376.677L308.022 379.535L307.387 383.345L305.483 386.997L306.276 388.268L308.974 389.855L312.147 392.555L314.845 395.889L315.162 397.636L318.018 398.112L321.033 399.859L323.571 403.669L323.413 407.957L308.657 444L293.266 423.835L290.568 421.294L285.332 419.071L282.952 416.372L279.62 411.132L275.019 406.21L270.894 403.034L256.614 393.984L248.521 386.362L243.444 383.028L241.381 382.075L241.54 381.916L249.474 382.552L251.536 380.17L251.378 376.518L244.079 373.342H240.112L237.732 370.643L239.953 369.849L244.237 369.214L250.902 364.292L252.964 363.657L254.551 362.069L254.868 360.163L253.599 353.971V344.603L251.219 341.11L247.887 342.698L245.824 345.714L240.112 349.366L233.289 349.049L231.068 348.731L226.784 347.302L225.039 346.032L223.135 342.698V338.569L226.467 329.836L232.972 322.85L244.872 314.117L247.411 310.782L250.425 293.316L255.503 290.617L257.566 287.759L258.518 284.266L262.167 278.232L267.72 273.628L272.956 272.199L277.875 274.263L284.539 278.55L286.126 279.344L289.616 279.661L291.044 278.709L291.362 275.692L291.044 272.675L291.52 269.182L291.362 259.178L292.472 252.827L294.852 246.476L300.564 243.618L307.07 241.713L307.229 236.473L316.431 233.456L321.35 233.297L335.789 234.25L345.15 233.773L351.973 235.838L355.146 242.189L358.002 251.557L365.301 254.415L379.264 242.665L386.562 225.676L388.784 212.973L390.529 209.162L396.4 202.97L399.732 200.906L401.477 198.683L402.746 196.301L406.078 194.396L409.728 195.983L413.06 194.713L415.44 190.902L426.071 188.997L430.037 190.744L429.085 195.983L435.749 206.304L444 215.355Z" fill="white" stroke="black" stroke-width="2" stroke-linecap="round" stroke-linejoin="round"/>
<path class="nigerian-state" d="M415.44 190.903L413.06 194.713L409.728 195.984L406.078 194.396L402.746 196.301L401.477 198.683L399.732 200.906L396.4 202.97L390.529 209.162L388.784 212.973L386.562 225.676L379.264 242.665L365.301 254.415L358.002 251.557L355.146 242.189L351.973 235.838L345.15 233.773L335.789 234.25L321.35 233.297L316.431 233.456L307.229 236.473L296.756 208.051L295.963 201.223L297.391 195.348L298.502 179.312L304.69 171.214L309.609 168.832L313.734 165.18L316.749 154.224L318.335 155.177L318.97 157.558L321.667 158.67L329.918 156.129L338.645 161.687L343.881 162.004L347.213 162.798L352.766 161.846H354.988L356.574 158.67L357.368 154.383L360.224 151.048L364.825 149.619L379.105 149.143L376.408 152.795L376.566 158.511L379.105 159.464L382.754 157.241L387.514 156.129L392.274 155.653L394.813 155.971L396.717 157.4L396.558 160.417L393.544 162.163L389.736 166.927L388.784 172.643L390.688 178.359L395.13 182.328L396.876 182.17L399.097 184.075L409.41 189.156L415.44 190.903Z" fill="white" stroke="black" stroke-width="2" stroke-linecap="round" stroke-linejoin="round"/>
<path class="nigerian-state" d="M316.749 154.224L313.734 165.18L309.608 168.832L304.69 171.214L298.502 179.311L297.391 195.348L295.963 201.223L296.756 208.051L307.228 236.473L307.07 241.713L300.564 243.618L294.852 246.476L292.472 252.827L291.362 259.178L291.52 269.182L291.044 272.675L291.362 275.692L291.044 278.709L289.616 279.661L286.126 279.344L284.539 278.55L277.875 274.263L272.956 272.199L267.72 273.628L262.167 278.232L258.518 284.266L257.566 287.759L255.503 290.617L250.425 293.316L248.363 290.776L242.968 291.252L240.588 291.887L238.367 292.84L235.511 292.681L232.813 291.887L228.053 294.428L224.404 294.269L223.611 292.364L223.293 290.141L222.024 286.806L220.437 283.472L216.153 279.82L209.965 279.979L205.047 283.154L199.652 283.79L198.541 277.915L195.844 272.199L186.482 276.803L195.526 228.534L194.733 224.723L192.194 221.706L190.132 217.419L187.117 213.767L183.468 211.385L180.77 208.368L180.929 204.558L183.15 201.223L184.42 197.413L185.054 193.443L185.53 184.71L187.752 178.676L196.637 181.058L203.46 176.136L203.301 173.278L205.84 170.896L208.22 167.403L211.076 164.545L215.201 166.133L218.851 169.308L223.769 177.247L229.005 178.359L231.861 175.501L235.669 172.801L237.256 170.737L238.525 170.261L240.747 168.356L243.285 166.927L245.665 165.974L248.521 165.497L250.267 162.957L250.584 158.352L249.632 153.906L258.2 153.43L266.768 154.224L274.226 152.636L277.558 151.207L281.207 150.413L289.775 149.619L295.011 147.555L300.564 147.714L303.262 152.319L307.228 154.859L314.845 153.906L316.749 154.224Z" fill="white" stroke="black" stroke-width="2" stroke-linecap="round" stroke-linejoin="round"/>
<path class="nigerian-state" d="M249.632 153.906L250.584 158.352L250.267 162.957L248.521 165.497L245.665 165.974L243.285 166.927L240.747 168.356L238.525 170.261L237.256 170.737L235.669 172.801L231.861 175.501L229.005 178.359L223.769 177.247L218.851 169.308L215.201 166.133L211.076 164.545L208.22 167.403L205.84 170.896L203.301 173.278L203.46 176.136L196.637 181.058L187.752 178.676L185.53 184.71L185.054 193.443L184.42 197.413L183.15 201.223L180.929 204.558L180.77 208.368L183.468 211.385L187.117 213.767L190.132 217.419L192.194 221.706L194.733 224.723L195.526 228.534L186.482 276.803L182.516 277.438L178.549 277.756L174.265 279.185L170.616 281.567L162.524 283.79L146.181 285.695L138.247 285.377L141.897 279.344L146.816 272.516L145.229 264.577L144.277 262.672L143.96 260.608V258.067L143.166 255.685L139.358 253.621L135.391 250.763L135.074 248.54L135.233 241.077L130.631 234.567L117.462 234.25L113.495 235.996L109.687 238.061L105.879 235.996L103.499 229.486L98.7393 225.834L93.1859 229.486L87.9499 242.665L82.5552 247.27L75.2564 247.587L67.9577 245.047L58.755 236.631L52.7256 225.834L48.4416 220.118L42.8882 215.514L40.3496 208.686L40.1909 205.828L45.1096 192.332L44.3163 180.582L39.2389 180.741L37.3349 186.615L36.0655 193.443L32.4162 192.808L30.0362 185.504L29.4015 170.737L26.0695 164.386L13.2174 164.068L1.95201 172.166L1 172.643L1.15867 171.055L3.06268 167.244L3.53868 158.829L5.12536 150.413L5.44269 142.474L5.9187 139.934L6.8707 137.711L8.29871 135.488L9.25072 132.947L9.40938 130.089L8.45738 127.231L5.9187 121.674L4.80802 118.816L4.33202 115.481L4.49069 112.941L5.60136 107.542L5.28403 102.62L5.9187 100.873L8.61605 97.8566L9.56805 96.2688L10.6787 91.8229L10.3614 87.8534L18.1361 81.1846L23.2135 81.3433L33.6855 78.9616L36.8589 76.8975L39.2389 73.8806L46.5376 68.0057L49.5523 66.7355L50.5043 65.4652L52.567 63.7186L55.2643 62.1308L60.659 57.3674L63.515 55.6208L66.5297 54.6681L68.5924 54.5093L70.8138 54.9857L71.7658 56.4147L73.3524 57.2086L74.7804 58.7964L76.5258 58.4788L92.0752 51.3337L97.9459 46.8878L103.341 44.1885L109.053 39.9014L136.185 26.2462L139.199 24.0233L141.738 21.1652L143.008 12.4322L146.34 5.92218L152.21 1.63512L158.557 1L164.586 3.69925L168.394 8.62149L171.409 14.4964L176.486 18.9423L182.357 21.9591L197.907 27.5165L207.585 29.7394H211.235L217.74 25.7699L219.961 30.8509L215.519 37.3609L211.076 39.9014L207.903 43.2358L205.681 46.729L202.825 49.5871L201.08 57.6849L202.825 65.7828L214.567 91.8229L219.168 98.9681L223.769 116.91L228.529 123.897L231.544 126.596L235.035 128.819L239.795 136.599L243.603 149.302L245.189 152.001L247.411 152.477L249.632 153.906Z" fill="white" stroke="black" stroke-width="2" stroke-linecap="round" stroke-linejoin="round"/>
</svg>
