<svg width="35" height="28" viewBox="0 0 35 28" fill="none" xmlns="http://www.w3.org/2000/svg">
<path d="M34.4657 3.32605C33.1982 3.8728 31.8189 4.26629 30.3982 4.41954C31.8732 3.54324 32.9778 2.15883 33.5047 0.526052C32.1206 1.34944 30.6043 1.92681 29.0231 2.23256C28.3622 1.52604 27.5629 0.963199 26.675 0.579101C25.7871 0.195002 24.8295 -0.00211981 23.8621 1.7191e-05C19.9479 1.7191e-05 16.8 3.1728 16.8 7.06628C16.8 7.61303 16.8663 8.15978 16.974 8.68581C11.113 8.3793 5.8858 5.5793 2.41065 1.29232C1.77744 2.37387 1.44562 3.60533 1.4497 4.85859C1.4497 7.31066 2.69645 9.47279 4.59763 10.7444C3.47724 10.7003 2.38307 10.3923 1.40414 9.84557V9.93255C1.40414 13.3663 3.83136 16.2118 7.06627 16.8663C6.45888 17.024 5.83405 17.1048 5.20651 17.1065C4.74674 17.1065 4.31183 17.061 3.87278 16.9988C4.76745 19.7988 7.37278 21.8325 10.4751 21.8988C8.04792 23.8 5.00769 24.9183 1.70651 24.9183C1.1142 24.9183 0.567455 24.8976 0 24.8314C3.13136 26.8402 6.84674 28 10.8479 28C23.8373 28 30.945 17.2391 30.945 7.89883C30.945 7.59232 30.945 7.28581 30.9242 6.9793C32.2994 5.97279 33.5047 4.72605 34.4657 3.32605Z" fill="white"/>
</svg>
